{"glyphs":{" ":{"ha":1389,"x_min":0,"x_max":0,"o":""},"Y":{"ha":510,"x_min":-268,"x_max":486,"o":"m 37 937 l 97 937 l 97 665 q 158 605 97 605 l 198 605 q 259 665 259 605 l 259 779 l 259 779 l 259 869 q 266 919 259 905 q 304 937 276 937 l 368 937 q 406 919 397 937 q 414 869 414 904 l 414 83 q 429 42 414 60 q 459 22 444 22 l 486 22 l 486 0 l 422 0 q 372 26 392 0 q 353 83 353 50 l 353 869 q 330 915 353 915 l 304 915 q 281 869 281 915 l 281 130 q 162 0 281 0 q 92 14 130 0 q 33 28 54 28 q -33 14 6 28 q -109 0 -73 0 q -218 17 -182 0 q -268 110 -268 42 q -216 187 -268 155 q -97 218 -165 218 q -7 201 -50 218 q 47 171 47 180 q 43 169 47 169 q -1 181 30 169 q -87 197 -47 197 q -174 171 -141 197 q -207 106 -207 144 q -106 25 -207 25 q -37 38 -73 25 q 33 51 -1 51 q 98 37 58 51 q 162 22 139 22 q 259 130 259 22 l 259 604 q 205 583 238 583 l 113 583 q 57 605 77 583 q 37 665 37 627 l 37 937 z "},"y":{"ha":510,"x_min":-268,"x_max":486,"o":"m 37 937 l 97 937 l 97 665 q 158 605 97 605 l 198 605 q 259 665 259 605 l 259 779 l 259 779 l 259 869 q 266 919 259 905 q 304 937 276 937 l 368 937 q 406 919 397 937 q 414 869 414 904 l 414 83 q 429 42 414 60 q 459 22 444 22 l 486 22 l 486 0 l 422 0 q 372 26 392 0 q 353 83 353 50 l 353 869 q 330 915 353 915 l 304 915 q 281 869 281 915 l 281 130 q 162 0 281 0 q 92 14 130 0 q 33 28 54 28 q -33 14 6 28 q -109 0 -73 0 q -218 17 -182 0 q -268 110 -268 42 q -216 187 -268 155 q -97 218 -165 218 q -7 201 -50 218 q 47 171 47 180 q 43 169 47 169 q -1 181 30 169 q -87 197 -47 197 q -174 171 -141 197 q -207 106 -207 144 q -106 25 -207 25 q -37 38 -73 25 q 33 51 -1 51 q 98 37 58 51 q 162 22 139 22 q 259 130 259 22 l 259 604 q 205 583 238 583 l 113 583 q 57 605 77 583 q 37 665 37 627 l 37 937 z "},"A":{"ha":444,"x_min":0,"x_max":423,"o":"m 423 590 l 365 590 l 365 667 q 325 720 355 699 q 181 757 270 757 l 181 663 l 181 644 q 139 599 181 608 q 60 590 97 590 l 0 590 l 0 603 q 20 608 9 602 q 34 625 32 615 q 106 653 39 648 q 85 626 90 636 q 81 609 83 621 q 96 609 89 606 q 146 630 136 616 q 159 682 156 642 l 159 682 l 159 688 l 159 704 l 159 756 q 62 729 98 751 q 50 728 54 724 q 45 739 44 730 q 113 832 54 808 q 141 831 153 835 q 89 760 102 814 q 159 774 122 772 l 159 810 l 159 836 l 159 857 l 159 861 l 159 861 q 178 913 160 890 q 233 937 198 937 l 349 937 q 404 916 385 937 q 423 857 423 894 l 423 659 l 423 590 m 365 734 l 365 857 q 305 916 365 916 l 241 916 q 181 857 181 916 l 181 847 l 181 792 l 181 775 q 254 768 218 775 q 325 751 290 761 q 365 734 349 743 z "},"a":{"ha":444,"x_min":0,"x_max":423,"o":"m 423 590 l 365 590 l 365 667 q 325 720 355 699 q 181 757 270 757 l 181 663 l 181 644 q 139 599 181 608 q 60 590 97 590 l 0 590 l 0 603 q 20 608 9 602 q 34 625 32 615 q 106 653 39 648 q 85 626 90 636 q 81 609 83 621 q 96 609 89 606 q 146 630 136 616 q 159 682 156 642 l 159 682 l 159 688 l 159 704 l 159 756 q 62 729 98 751 q 50 728 54 724 q 45 739 44 730 q 113 832 54 808 q 141 831 153 835 q 89 760 102 814 q 159 774 122 772 l 159 810 l 159 836 l 159 857 l 159 861 l 159 861 q 178 913 160 890 q 233 937 198 937 l 349 937 q 404 916 385 937 q 423 857 423 894 l 423 659 l 423 590 m 365 734 l 365 857 q 305 916 365 916 l 241 916 q 181 857 181 916 l 181 847 l 181 792 l 181 775 q 254 768 218 775 q 325 751 290 761 q 365 734 349 743 z "},"C":{"ha":401,"x_min":5,"x_max":382,"o":"m 353 591 q 312 631 336 618 q 283 640 293 640 q 185 615 249 640 q 85 591 120 591 q 35 617 58 591 q 9 669 13 641 q 5 711 5 691 q 79 873 5 800 q 252 937 144 937 q 307 910 307 937 q 177 845 307 845 q 135 854 168 845 q 90 802 106 827 q 52 739 60 762 q 42 665 42 711 q 54 630 42 646 q 85 613 67 613 q 184 655 121 613 q 283 697 246 697 q 323 686 302 697 q 372 623 353 669 q 382 591 376 613 l 353 591 m 283 911 q 281 913 283 913 q 248 916 274 916 q 155 871 209 916 q 177 867 171 867 q 283 911 283 867 z "},"c":{"ha":401,"x_min":5,"x_max":382,"o":"m 353 591 q 312 631 336 618 q 283 640 293 640 q 185 615 249 640 q 85 591 120 591 q 35 617 58 591 q 9 669 13 641 q 5 711 5 691 q 79 873 5 800 q 252 937 144 937 q 307 910 307 937 q 177 845 307 845 q 135 854 168 845 q 90 802 106 827 q 52 739 60 762 q 42 665 42 711 q 54 630 42 646 q 85 613 67 613 q 184 655 121 613 q 283 697 246 697 q 323 686 302 697 q 372 623 353 669 q 382 591 376 613 l 353 591 m 283 911 q 281 913 283 913 q 248 916 274 916 q 155 871 209 916 q 177 867 171 867 q 283 911 283 867 z "},"E":{"ha":429,"x_min":0,"x_max":408,"o":"m 408 916 l 401 916 q 378 871 378 916 l 378 672 q 356 616 378 641 q 304 591 334 591 l 182 591 q 119 612 147 591 q 86 672 86 636 l 86 699 q 136 770 86 746 q 86 840 86 794 l 86 857 q 118 916 86 890 q 51 871 79 914 q 22 768 22 826 q 35 679 22 724 q 90 612 53 612 l 100 612 l 100 591 l 90 591 q 16 662 39 591 q 0 768 0 711 q 33 886 0 836 q 119 937 66 937 l 279 937 l 279 916 l 190 916 q 145 863 145 916 l 145 832 q 190 781 145 781 l 280 781 l 280 759 l 190 759 q 145 707 145 759 l 145 665 q 190 612 145 612 l 297 612 q 337 631 319 612 q 356 672 356 650 l 356 871 q 363 920 356 907 q 401 937 372 937 l 408 937 l 408 916 z "},"e":{"ha":429,"x_min":0,"x_max":408,"o":"m 408 916 l 401 916 q 378 871 378 916 l 378 672 q 356 616 378 641 q 304 591 334 591 l 182 591 q 119 612 147 591 q 86 672 86 636 l 86 699 q 136 770 86 746 q 86 840 86 794 l 86 857 q 118 916 86 890 q 51 871 79 914 q 22 768 22 826 q 35 679 22 724 q 90 612 53 612 l 100 612 l 100 591 l 90 591 q 16 662 39 591 q 0 768 0 711 q 33 886 0 836 q 119 937 66 937 l 279 937 l 279 916 l 190 916 q 145 863 145 916 l 145 832 q 190 781 145 781 l 280 781 l 280 759 l 190 759 q 145 707 145 759 l 145 665 q 190 612 145 612 l 297 612 q 337 631 319 612 q 356 672 356 650 l 356 871 q 363 920 356 907 q 401 937 372 937 l 408 937 l 408 916 z "},"F":{"ha":406,"x_min":0,"x_max":387,"o":"m 90 591 l 5 591 l 5 613 l 90 613 l 113 613 q 164 814 164 613 q 164 839 164 824 q 164 876 164 854 q 164 911 164 896 q 164 937 164 926 l 164 1081 q 18 1055 74 1089 q 5 1053 10 1050 q 0 1065 0 1055 q 69 1160 9 1137 q 98 1159 107 1163 q 45 1087 57 1141 q 164 1101 98 1107 l 164 1444 q 182 1502 164 1478 q 233 1528 203 1528 l 296 1528 l 296 1506 l 270 1506 q 239 1486 253 1506 q 224 1444 224 1466 l 224 1093 q 286 1078 251 1088 q 387 983 372 1051 l 329 982 q 286 1045 321 1021 q 224 1071 262 1061 l 224 937 q 224 919 224 930 q 224 893 224 908 q 224 867 224 879 q 224 848 224 856 q 206 672 224 726 q 113 591 182 591 l 90 591 z "},"f":{"ha":406,"x_min":0,"x_max":387,"o":"m 90 591 l 5 591 l 5 613 l 90 613 l 113 613 q 164 814 164 613 q 164 839 164 824 q 164 876 164 854 q 164 911 164 896 q 164 937 164 926 l 164 1081 q 18 1055 74 1089 q 5 1053 10 1050 q 0 1065 0 1055 q 69 1160 9 1137 q 98 1159 107 1163 q 45 1087 57 1141 q 164 1101 98 1107 l 164 1444 q 182 1502 164 1478 q 233 1528 203 1528 l 296 1528 l 296 1506 l 270 1506 q 239 1486 253 1506 q 224 1444 224 1466 l 224 1093 q 286 1078 251 1088 q 387 983 372 1051 l 329 982 q 286 1045 321 1021 q 224 1071 262 1061 l 224 937 q 224 919 224 930 q 224 893 224 908 q 224 867 224 879 q 224 848 224 856 q 206 672 224 726 q 113 591 182 591 l 90 591 z "},"G":{"ha":354,"x_min":0,"x_max":338,"o":"m 268 591 l 261 602 q 310 707 310 650 q 287 765 310 745 q 233 783 266 783 q 179 770 199 783 q 191 770 185 770 q 244 755 222 770 q 270 701 270 737 q 234 623 270 653 q 160 593 201 593 q 51 631 95 593 q 0 745 0 672 q 64 886 0 829 q 196 937 122 937 q 214 936 204 937 q 233 936 225 935 l 235 923 q 99 863 158 907 q 22 730 22 806 q 68 638 22 671 q 160 610 107 610 q 224 634 194 610 q 256 701 256 661 q 191 754 256 754 q 171 749 186 754 q 151 745 157 745 q 142 751 141 745 q 185 794 151 774 q 241 812 218 812 q 338 727 338 812 q 268 591 338 644 z "},"g":{"ha":354,"x_min":0,"x_max":338,"o":"m 268 591 l 261 602 q 310 707 310 650 q 287 765 310 745 q 233 783 266 783 q 179 770 199 783 q 191 770 185 770 q 244 755 222 770 q 270 701 270 737 q 234 623 270 653 q 160 593 201 593 q 51 631 95 593 q 0 745 0 672 q 64 886 0 829 q 196 937 122 937 q 214 936 204 937 q 233 936 225 935 l 235 923 q 99 863 158 907 q 22 730 22 806 q 68 638 22 671 q 160 610 107 610 q 224 634 194 610 q 256 701 256 661 q 191 754 256 754 q 171 749 186 754 q 151 745 157 745 q 142 751 141 745 q 185 794 151 774 q 241 812 218 812 q 338 727 338 812 q 268 591 338 644 z "},"I":{"ha":237,"x_min":0,"x_max":226,"o":"m 226 591 l 182 591 q 129 616 151 591 q 106 673 106 641 l 106 873 q 84 919 106 919 l 83 919 q 33 859 48 919 q 22 770 22 819 q 75 612 22 612 l 86 612 l 86 591 l 75 591 q 0 770 0 591 q 15 876 0 831 q 83 941 36 941 l 106 941 q 166 873 166 941 l 166 673 q 185 632 166 652 q 226 612 205 612 l 226 591 m 191 1038 q 155 985 186 1006 q 94 966 126 966 q 53 980 70 966 q 35 1016 35 993 q 70 1056 35 1056 q 105 1024 105 1056 q 88 997 105 1004 q 97 996 94 996 q 144 1010 119 996 q 174 1047 166 1025 l 191 1038 z "},"i":{"ha":237,"x_min":0,"x_max":226,"o":"m 226 591 l 182 591 q 129 616 151 591 q 106 673 106 641 l 106 873 q 84 919 106 919 l 83 919 q 33 859 48 919 q 22 770 22 819 q 75 612 22 612 l 86 612 l 86 591 l 75 591 q 0 770 0 591 q 15 876 0 831 q 83 941 36 941 l 106 941 q 166 873 166 941 l 166 673 q 185 632 166 652 q 226 612 205 612 l 226 591 m 191 1038 q 155 985 186 1006 q 94 966 126 966 q 53 980 70 966 q 35 1016 35 993 q 70 1056 35 1056 q 105 1024 105 1056 q 88 997 105 1004 q 97 996 94 996 q 144 1010 119 996 q 174 1047 166 1025 l 191 1038 z "},"J":{"ha":345,"x_min":-183,"x_max":329,"o":"m 295 598 q 40 349 295 499 q -91 227 -35 304 q -156 43 -157 134 q 43 230 -47 203 q 138 244 93 244 q 257 224 186 244 l 254 205 q 208 208 233 208 q 52 175 160 208 q -159 6 -38 148 q -169 0 -163 0 q -178 12 -177 0 q -183 73 -183 41 q -5 394 -183 269 q 126 463 54 435 q 207 498 192 487 q 235 575 235 521 l 235 855 q 227 901 235 889 q 181 916 215 916 l 145 916 q 168 886 159 903 q 149 892 158 897 q 127 901 139 888 q 87 916 111 916 l 84 916 l 84 938 l 219 938 q 274 915 254 938 q 295 855 295 892 l 295 598 m 329 1078 q 290 1004 329 1034 q 182 972 248 972 q 82 1000 125 972 q 35 1078 35 1030 l 42 1078 q 64 1055 42 1072 q 100 1038 86 1038 q 113 1055 113 1038 q 182 1162 113 1110 q 250 1055 250 1109 q 264 1036 250 1036 q 300 1055 277 1036 q 321 1078 321 1072 l 329 1078 m 228 1055 q 214 1089 228 1072 q 182 1122 213 1091 q 149 1089 151 1091 q 135 1055 135 1072 q 149 1034 135 1038 q 182 1031 155 1031 q 214 1034 208 1031 q 228 1055 228 1038 z "},"j":{"ha":345,"x_min":-183,"x_max":329,"o":"m 295 598 q 40 349 295 499 q -91 227 -35 304 q -156 43 -157 134 q 43 230 -47 203 q 138 244 93 244 q 257 224 186 244 l 254 205 q 208 208 233 208 q 52 175 160 208 q -159 6 -38 148 q -169 0 -163 0 q -178 12 -177 0 q -183 73 -183 41 q -5 394 -183 269 q 126 463 54 435 q 207 498 192 487 q 235 575 235 521 l 235 855 q 227 901 235 889 q 181 916 215 916 l 145 916 q 168 886 159 903 q 149 892 158 897 q 127 901 139 888 q 87 916 111 916 l 84 916 l 84 938 l 219 938 q 274 915 254 938 q 295 855 295 892 l 295 598 m 329 1078 q 290 1004 329 1034 q 182 972 248 972 q 82 1000 125 972 q 35 1078 35 1030 l 42 1078 q 64 1055 42 1072 q 100 1038 86 1038 q 113 1055 113 1038 q 182 1162 113 1110 q 250 1055 250 1109 q 264 1036 250 1036 q 300 1055 277 1036 q 321 1078 321 1072 l 329 1078 m 228 1055 q 214 1089 228 1072 q 182 1122 213 1091 q 149 1089 151 1091 q 135 1055 135 1072 q 149 1034 135 1038 q 182 1031 155 1031 q 214 1034 208 1031 q 228 1055 228 1038 z "},"M":{"ha":814,"x_min":0,"x_max":776,"o":"m 776 590 l 718 590 l 718 842 q 694 892 718 869 q 643 916 671 916 l 608 916 q 557 892 581 916 q 534 842 534 869 l 534 613 q 532 593 534 596 q 519 590 529 590 l 450 590 q 431 594 433 590 q 427 613 427 597 l 427 842 q 404 892 427 868 q 353 916 381 916 l 317 916 q 267 892 290 916 q 243 842 243 870 l 243 613 q 241 593 243 596 q 227 590 238 590 l 159 590 q 140 594 144 590 q 136 613 136 597 l 136 871 q 102 916 136 916 l 97 916 q 41 876 60 916 q 23 812 23 846 q 37 756 23 781 q 90 722 56 722 l 100 722 l 100 701 l 90 701 q 18 739 42 701 q 0 812 0 769 q 22 893 0 856 q 97 937 48 937 l 123 937 q 175 920 155 937 q 195 871 195 901 l 195 628 q 203 613 195 613 l 213 613 q 221 628 221 613 l 221 842 q 247 905 221 873 q 310 937 274 937 l 397 937 q 458 908 431 937 q 486 842 486 879 l 486 628 q 494 612 486 612 l 504 612 q 512 628 512 612 l 512 842 q 538 905 512 875 q 601 937 565 937 l 687 937 q 749 908 722 937 q 776 842 776 879 l 776 590 z "},"m":{"ha":814,"x_min":0,"x_max":776,"o":"m 776 590 l 718 590 l 718 842 q 694 892 718 869 q 643 916 671 916 l 608 916 q 557 892 581 916 q 534 842 534 869 l 534 613 q 532 593 534 596 q 519 590 529 590 l 450 590 q 431 594 433 590 q 427 613 427 597 l 427 842 q 404 892 427 868 q 353 916 381 916 l 317 916 q 267 892 290 916 q 243 842 243 870 l 243 613 q 241 593 243 596 q 227 590 238 590 l 159 590 q 140 594 144 590 q 136 613 136 597 l 136 871 q 102 916 136 916 l 97 916 q 41 876 60 916 q 23 812 23 846 q 37 756 23 781 q 90 722 56 722 l 100 722 l 100 701 l 90 701 q 18 739 42 701 q 0 812 0 769 q 22 893 0 856 q 97 937 48 937 l 123 937 q 175 920 155 937 q 195 871 195 901 l 195 628 q 203 613 195 613 l 213 613 q 221 628 221 613 l 221 842 q 247 905 221 873 q 310 937 274 937 l 397 937 q 458 908 431 937 q 486 842 486 879 l 486 628 q 494 612 486 612 l 504 612 q 512 628 512 612 l 512 842 q 538 905 512 875 q 601 937 565 937 l 687 937 q 749 908 722 937 q 776 842 776 879 l 776 590 z "},"N":{"ha":387,"x_min":0,"x_max":368,"o":"m 368 591 l 309 591 l 309 857 q 250 916 309 916 l 211 916 q 151 857 151 916 l 151 613 q 149 593 151 596 q 136 591 147 591 l 67 591 q 48 594 52 591 q 45 613 45 597 l 45 871 q 22 916 45 916 l 0 916 l 0 937 l 58 937 q 96 920 87 937 q 103 871 103 905 l 103 628 q 111 612 103 612 l 121 612 q 130 628 130 612 l 130 857 q 148 913 130 889 q 203 937 168 937 l 294 937 q 349 916 330 937 q 368 857 368 894 l 368 591 z "},"n":{"ha":387,"x_min":0,"x_max":368,"o":"m 368 591 l 309 591 l 309 857 q 250 916 309 916 l 211 916 q 151 857 151 916 l 151 613 q 149 593 151 596 q 136 591 147 591 l 67 591 q 48 594 52 591 q 45 613 45 597 l 45 871 q 22 916 45 916 l 0 916 l 0 937 l 58 937 q 96 920 87 937 q 103 871 103 905 l 103 628 q 111 612 103 612 l 121 612 q 130 628 130 612 l 130 857 q 148 913 130 889 q 203 937 168 937 l 294 937 q 349 916 330 937 q 368 857 368 894 l 368 591 z "},"O":{"ha":422,"x_min":0,"x_max":403,"o":"m 403 770 q 360 627 403 668 q 245 591 325 591 q 66 770 66 591 q 82 859 66 819 q 130 916 98 903 l 104 916 q 43 871 66 916 q 22 769 22 829 q 35 680 22 726 q 90 614 53 614 l 100 614 l 100 592 l 90 592 q 16 663 38 592 q 0 769 0 711 q 25 886 0 839 q 104 937 53 937 l 193 937 l 193 916 l 189 916 q 131 861 144 916 q 125 770 125 836 q 151 652 125 689 q 245 612 180 612 q 344 644 313 612 q 381 770 381 680 q 360 876 381 835 q 302 916 338 916 l 299 916 l 254 916 l 254 937 l 299 937 q 384 880 366 937 q 403 770 403 822 z "},"o":{"ha":422,"x_min":0,"x_max":403,"o":"m 403 770 q 360 627 403 668 q 245 591 325 591 q 66 770 66 591 q 82 859 66 819 q 130 916 98 903 l 104 916 q 43 871 66 916 q 22 769 22 829 q 35 680 22 726 q 90 614 53 614 l 100 614 l 100 592 l 90 592 q 16 663 38 592 q 0 769 0 711 q 25 886 0 839 q 104 937 53 937 l 193 937 l 193 916 l 189 916 q 131 861 144 916 q 125 770 125 836 q 151 652 125 689 q 245 612 180 612 q 344 644 313 612 q 381 770 381 680 q 360 876 381 835 q 302 916 338 916 l 299 916 l 254 916 l 254 937 l 299 937 q 384 880 366 937 q 403 770 403 822 z "},"Q":{"ha":419,"x_min":0,"x_max":399,"o":"m 399 760 q 394 693 399 730 q 370 630 389 656 q 337 609 359 615 q 295 615 316 602 q 256 652 275 627 q 237 611 237 624 q 245 589 237 600 q 281 574 258 574 q 309 585 302 574 l 321 578 q 257 539 298 539 q 219 554 234 539 q 200 601 200 572 q 243 674 200 627 q 233 712 234 692 q 271 777 228 777 q 298 721 305 777 q 273 671 296 698 q 301 641 287 650 q 357 655 334 614 q 378 760 378 694 q 341 884 378 848 q 243 916 309 916 q 150 876 178 916 q 123 760 123 840 q 130 669 123 699 q 187 615 142 615 l 191 615 l 191 593 q 98 594 144 593 q 25 645 52 595 q 0 760 0 690 q 15 865 0 817 q 89 936 38 936 l 99 936 l 99 914 l 89 914 q 35 849 54 914 q 22 760 22 802 q 43 659 22 699 q 78 622 58 629 q 128 615 98 615 q 81 671 98 627 q 66 760 66 712 q 243 937 66 937 q 357 902 321 937 q 399 760 399 860 m 260 684 q 281 732 279 707 q 269 760 284 758 q 255 736 259 761 q 260 684 250 711 z "},"q":{"ha":419,"x_min":0,"x_max":399,"o":"m 399 760 q 394 693 399 730 q 370 630 389 656 q 337 609 359 615 q 295 615 316 602 q 256 652 275 627 q 237 611 237 624 q 245 589 237 600 q 281 574 258 574 q 309 585 302 574 l 321 578 q 257 539 298 539 q 219 554 234 539 q 200 601 200 572 q 243 674 200 627 q 233 712 234 692 q 271 777 228 777 q 298 721 305 777 q 273 671 296 698 q 301 641 287 650 q 357 655 334 614 q 378 760 378 694 q 341 884 378 848 q 243 916 309 916 q 150 876 178 916 q 123 760 123 840 q 130 669 123 699 q 187 615 142 615 l 191 615 l 191 593 q 98 594 144 593 q 25 645 52 595 q 0 760 0 690 q 15 865 0 817 q 89 936 38 936 l 99 936 l 99 914 l 89 914 q 35 849 54 914 q 22 760 22 802 q 43 659 22 699 q 78 622 58 629 q 128 615 98 615 q 81 671 98 627 q 66 760 66 712 q 243 937 66 937 q 357 902 321 937 q 399 760 399 860 m 260 684 q 281 732 279 707 q 269 760 284 758 q 255 736 259 761 q 260 684 250 711 z "},"R":{"ha":423,"x_min":0,"x_max":404,"o":"m 400 591 l 342 591 q 302 713 342 663 q 212 761 265 760 q 117 751 144 762 q 140 654 118 694 q 203 612 163 612 l 207 612 l 207 591 l 166 591 l 132 591 l 75 591 l 73 591 l 73 591 q 20 613 41 591 q 0 672 0 635 l 59 672 q 67 627 59 638 q 111 612 77 612 l 146 612 q 95 759 95 646 q 263 937 95 937 q 395 880 359 937 q 388 862 404 865 q 281 833 345 855 q 160 781 197 806 q 208 785 184 785 q 346 736 295 785 q 400 591 400 685 m 366 880 q 304 897 352 897 q 219 884 252 897 q 159 854 175 866 q 117 776 120 824 q 235 841 148 808 q 366 880 300 865 z "},"r":{"ha":423,"x_min":0,"x_max":404,"o":"m 400 591 l 342 591 q 302 713 342 663 q 212 761 265 760 q 117 751 144 762 q 140 654 118 694 q 203 612 163 612 l 207 612 l 207 591 l 166 591 l 132 591 l 75 591 l 73 591 l 73 591 q 20 613 41 591 q 0 672 0 635 l 59 672 q 67 627 59 638 q 111 612 77 612 l 146 612 q 95 759 95 646 q 263 937 95 937 q 395 880 359 937 q 388 862 404 865 q 281 833 345 855 q 160 781 197 806 q 208 785 184 785 q 346 736 295 785 q 400 591 400 685 m 366 880 q 304 897 352 897 q 219 884 252 897 q 159 854 175 866 q 117 776 120 824 q 235 841 148 808 q 366 880 300 865 z "},"S":{"ha":406,"x_min":0,"x_max":387,"o":"m 0 937 l 50 937 q 69 934 66 937 q 73 914 73 930 l 73 671 q 132 612 73 612 l 218 612 q 267 661 267 612 l 267 699 q 218 747 267 747 l 157 747 q 93 818 93 747 l 93 867 q 157 937 93 937 l 304 937 l 304 937 l 305 937 q 372 873 351 937 q 387 768 387 827 q 313 591 387 591 l 304 591 l 304 612 l 313 612 q 365 768 365 612 q 354 857 365 818 q 305 916 338 916 l 304 916 l 304 916 l 163 916 q 115 867 115 916 l 115 818 q 163 769 115 769 l 225 769 q 288 699 288 769 l 288 661 q 225 591 288 591 l 88 591 q 35 613 56 591 q 14 671 14 635 l 14 900 q 5 916 14 916 l 0 916 l 0 937 z "},"s":{"ha":406,"x_min":0,"x_max":387,"o":"m 0 937 l 50 937 q 69 934 66 937 q 73 914 73 930 l 73 671 q 132 612 73 612 l 218 612 q 267 661 267 612 l 267 699 q 218 747 267 747 l 157 747 q 93 818 93 747 l 93 867 q 157 937 93 937 l 304 937 l 304 937 l 305 937 q 372 873 351 937 q 387 768 387 827 q 313 591 387 591 l 304 591 l 304 612 l 313 612 q 365 768 365 612 q 354 857 365 818 q 305 916 338 916 l 304 916 l 304 916 l 163 916 q 115 867 115 916 l 115 818 q 163 769 115 769 l 225 769 q 288 699 288 769 l 288 661 q 225 591 288 591 l 88 591 q 35 613 56 591 q 14 671 14 635 l 14 900 q 5 916 14 916 l 0 916 l 0 937 z "},"T":{"ha":308,"x_min":-93,"x_max":294,"o":"m 203 591 l 181 591 q 87 672 112 591 q 69 848 69 729 q 69 867 69 856 q 69 893 69 879 q 69 919 69 908 q 69 937 69 930 l 69 1071 q 7 1045 31 1061 q -35 982 -27 1021 l -93 983 q 7 1078 -78 1051 q 69 1093 39 1087 l 69 1444 q 55 1486 69 1466 q 24 1506 39 1506 l -3 1506 l -3 1528 l 61 1528 q 111 1502 91 1528 q 129 1444 129 1478 l 129 1101 q 248 1087 195 1107 q 195 1159 236 1141 q 224 1160 184 1163 q 293 1065 284 1137 q 289 1053 294 1056 q 276 1055 283 1050 q 206 1079 245 1073 q 129 1081 167 1084 l 129 937 q 129 911 129 926 q 129 876 129 896 q 129 839 129 854 q 129 814 129 824 q 181 613 129 613 l 203 613 l 289 613 l 289 591 l 203 591 z "},"t":{"ha":308,"x_min":-93,"x_max":294,"o":"m 203 591 l 181 591 q 87 672 112 591 q 69 848 69 729 q 69 867 69 856 q 69 893 69 879 q 69 919 69 908 q 69 937 69 930 l 69 1071 q 7 1045 31 1061 q -35 982 -27 1021 l -93 983 q 7 1078 -78 1051 q 69 1093 39 1087 l 69 1444 q 55 1486 69 1466 q 24 1506 39 1506 l -3 1506 l -3 1528 l 61 1528 q 111 1502 91 1528 q 129 1444 129 1478 l 129 1101 q 248 1087 195 1107 q 195 1159 236 1141 q 224 1160 184 1163 q 293 1065 284 1137 q 289 1053 294 1056 q 276 1055 283 1050 q 206 1079 245 1073 q 129 1081 167 1084 l 129 937 q 129 911 129 926 q 129 876 129 896 q 129 839 129 854 q 129 814 129 824 q 181 613 129 613 l 203 613 l 289 613 l 289 591 l 203 591 z "},"U":{"ha":387,"x_min":0,"x_max":368,"o":"m 0 937 l 59 937 l 59 671 q 118 612 59 612 l 157 612 q 217 671 217 612 l 217 914 q 219 935 217 931 q 232 937 220 937 l 301 937 q 320 934 317 937 q 324 914 324 930 l 324 657 q 347 612 324 612 l 368 612 l 368 591 l 310 591 q 273 608 281 591 q 265 657 265 622 l 265 900 q 257 916 265 916 l 247 916 q 239 900 239 916 l 239 671 q 220 615 239 638 q 165 591 200 591 l 75 591 q 20 612 38 591 q 0 671 0 635 l 0 937 z "},"u":{"ha":387,"x_min":0,"x_max":368,"o":"m 0 937 l 59 937 l 59 671 q 118 612 59 612 l 157 612 q 217 671 217 612 l 217 914 q 219 935 217 931 q 232 937 220 937 l 301 937 q 320 934 317 937 q 324 914 324 930 l 324 657 q 347 612 324 612 l 368 612 l 368 591 l 310 591 q 273 608 281 591 q 265 657 265 622 l 265 900 q 257 916 265 916 l 247 916 q 239 900 239 916 l 239 671 q 220 615 239 638 q 165 591 200 591 l 75 591 q 20 612 38 591 q 0 671 0 635 l 0 937 z "},"V":{"ha":427,"x_min":0,"x_max":407,"o":"m 7 909 l 0 939 q 35 937 20 939 q 110 905 85 931 q 132 869 127 887 q 117 760 141 834 q 101 651 91 685 q 126 625 105 633 q 163 622 146 616 q 235 652 209 633 q 288 705 256 667 q 327 764 307 729 q 307 804 310 790 q 336 949 272 931 q 378 901 363 956 q 359 713 407 794 q 219 598 306 621 q 176 591 196 592 q 118 602 148 587 q 79 646 86 618 q 77 750 69 682 q 75 854 83 820 q 58 880 71 865 q 7 909 39 901 m 343 926 q 328 809 300 914 q 338 788 332 798 q 357 892 368 852 q 346 924 351 916 q 343 926 345 926 z "},"v":{"ha":427,"x_min":0,"x_max":407,"o":"m 7 909 l 0 939 q 35 937 20 939 q 110 905 85 931 q 132 869 127 887 q 117 760 141 834 q 101 651 91 685 q 126 625 105 633 q 163 622 146 616 q 235 652 209 633 q 288 705 256 667 q 327 764 307 729 q 307 804 310 790 q 336 949 272 931 q 378 901 363 956 q 359 713 407 794 q 219 598 306 621 q 176 591 196 592 q 118 602 148 587 q 79 646 86 618 q 77 750 69 682 q 75 854 83 820 q 58 880 71 865 q 7 909 39 901 m 343 926 q 328 809 300 914 q 338 788 332 798 q 357 892 368 852 q 346 924 351 916 q 343 926 345 926 z "},"W":{"ha":473,"x_min":0,"x_max":451,"o":"m 437 677 q 345 590 408 590 q 257 635 284 590 q 185 590 227 590 q 68 763 68 590 q 126 916 68 863 l 118 916 q 51 871 79 916 q 22 769 22 827 q 82 614 22 614 l 90 614 l 90 592 l 82 592 q 0 769 0 592 q 33 886 0 836 q 118 937 66 937 l 185 937 l 185 916 l 174 916 q 136 863 153 916 q 120 763 120 812 q 185 612 120 612 q 241 650 212 612 q 255 672 248 661 q 269 693 262 682 q 354 616 303 616 q 395 641 376 616 q 419 703 413 664 q 426 766 426 742 q 421 829 425 790 q 374 916 412 916 l 374 937 q 439 853 420 937 q 449 772 446 823 q 437 677 451 720 z "},"w":{"ha":473,"x_min":0,"x_max":451,"o":"m 437 677 q 345 590 408 590 q 257 635 284 590 q 185 590 227 590 q 68 763 68 590 q 126 916 68 863 l 118 916 q 51 871 79 916 q 22 769 22 827 q 82 614 22 614 l 90 614 l 90 592 l 82 592 q 0 769 0 592 q 33 886 0 836 q 118 937 66 937 l 185 937 l 185 916 l 174 916 q 136 863 153 916 q 120 763 120 812 q 185 612 120 612 q 241 650 212 612 q 255 672 248 661 q 269 693 262 682 q 354 616 303 616 q 395 641 376 616 q 419 703 413 664 q 426 766 426 742 q 421 829 425 790 q 374 916 412 916 l 374 937 q 439 853 420 937 q 449 772 446 823 q 437 677 451 720 z "},"X":{"ha":498,"x_min":0,"x_max":475,"o":"m 61 618 q 33 590 55 585 q 13 614 11 595 q 83 717 18 665 q 186 791 147 769 l 176 808 l 145 863 l 140 873 q 45 899 105 933 l 13 880 l 0 903 l 40 925 q 111 932 77 945 q 159 890 140 920 l 159 890 l 161 886 l 174 865 l 189 838 l 208 803 q 288 829 247 821 q 195 870 243 876 q 222 888 180 867 q 343 832 296 898 q 346 818 349 823 q 332 812 342 812 q 219 784 281 813 l 249 732 l 258 716 l 262 709 l 262 709 q 304 665 285 671 q 366 671 323 656 q 382 680 374 673 q 368 695 370 692 q 332 711 355 703 q 421 723 401 743 q 444 715 428 715 q 467 720 459 713 l 475 708 l 413 673 q 329 637 376 652 q 261 659 281 623 l 250 677 l 197 772 q 112 709 155 749 q 61 618 69 669 z "},"x":{"ha":498,"x_min":0,"x_max":475,"o":"m 61 618 q 33 590 55 585 q 13 614 11 595 q 83 717 18 665 q 186 791 147 769 l 176 808 l 145 863 l 140 873 q 45 899 105 933 l 13 880 l 0 903 l 40 925 q 111 932 77 945 q 159 890 140 920 l 159 890 l 161 886 l 174 865 l 189 838 l 208 803 q 288 829 247 821 q 195 870 243 876 q 222 888 180 867 q 343 832 296 898 q 346 818 349 823 q 332 812 342 812 q 219 784 281 813 l 249 732 l 258 716 l 262 709 l 262 709 q 304 665 285 671 q 366 671 323 656 q 382 680 374 673 q 368 695 370 692 q 332 711 355 703 q 421 723 401 743 q 444 715 428 715 q 467 720 459 713 l 475 708 l 413 673 q 329 637 376 652 q 261 659 281 623 l 250 677 l 197 772 q 112 709 155 749 q 61 618 69 669 z "},"Z":{"ha":406,"x_min":0,"x_max":387,"o":"m 0 591 l 0 612 l 5 612 q 14 628 14 612 l 14 857 q 35 915 14 892 q 88 937 56 937 l 225 937 q 288 867 288 937 l 288 829 q 225 759 288 759 l 163 759 q 115 710 115 759 l 115 661 q 163 612 115 612 l 304 612 l 304 612 l 305 612 q 354 671 338 612 q 365 760 365 710 q 313 916 365 916 l 304 916 l 304 937 l 313 937 q 387 760 387 937 q 372 654 387 701 q 305 591 351 591 l 304 591 l 304 591 l 157 591 q 93 661 93 591 l 93 710 q 157 781 93 781 l 218 781 q 267 829 267 781 l 267 867 q 218 916 267 916 l 132 916 q 73 857 73 916 l 73 613 q 69 594 73 597 q 50 591 66 591 l 0 591 z "},"z":{"ha":406,"x_min":0,"x_max":387,"o":"m 0 591 l 0 612 l 5 612 q 14 628 14 612 l 14 857 q 35 915 14 892 q 88 937 56 937 l 225 937 q 288 867 288 937 l 288 829 q 225 759 288 759 l 163 759 q 115 710 115 759 l 115 661 q 163 612 115 612 l 304 612 l 304 612 l 305 612 q 354 671 338 612 q 365 760 365 710 q 313 916 365 916 l 304 916 l 304 937 l 313 937 q 387 760 387 937 q 372 654 387 701 q 305 591 351 591 l 304 591 l 304 591 l 157 591 q 93 661 93 591 l 93 710 q 157 781 93 781 l 218 781 q 267 829 267 781 l 267 867 q 218 916 267 916 l 132 916 q 73 857 73 916 l 73 613 q 69 594 73 597 q 50 591 66 591 l 0 591 z "},"B":{"ha":376,"x_min":-84,"x_max":358,"o":"m -84 1505 l -84 1528 l -52 1528 q 60 1369 60 1528 l 60 666 q 110 613 60 618 q 203 654 175 615 q 230 774 230 692 q 224 869 230 842 q 164 924 210 924 l 94 924 l 94 947 l 251 947 q 332 894 302 947 q 358 774 358 845 q 342 665 358 712 q 266 592 318 592 l 256 592 l 256 614 l 266 614 q 322 682 302 614 q 336 774 336 730 q 314 879 336 836 q 251 924 290 924 l 225 924 q 274 867 256 911 q 290 774 290 827 q 106 590 290 590 l 83 590 q 23 612 47 590 q 0 666 0 633 l 0 1451 q -15 1489 0 1474 q -52 1505 -31 1505 l -84 1505 z "},"b":{"ha":376,"x_min":-84,"x_max":358,"o":"m -84 1505 l -84 1528 l -52 1528 q 60 1369 60 1528 l 60 666 q 110 613 60 618 q 203 654 175 615 q 230 774 230 692 q 224 869 230 842 q 164 924 210 924 l 94 924 l 94 947 l 251 947 q 332 894 302 947 q 358 774 358 845 q 342 665 358 712 q 266 592 318 592 l 256 592 l 256 614 l 266 614 q 322 682 302 614 q 336 774 336 730 q 314 879 336 836 q 251 924 290 924 l 225 924 q 274 867 256 911 q 290 774 290 827 q 106 590 290 590 l 83 590 q 23 612 47 590 q 0 666 0 633 l 0 1451 q -15 1489 0 1474 q -52 1505 -31 1505 l -84 1505 z "},"K":{"ha":331,"x_min":-73,"x_max":315,"o":"m -73 1528 l -52 1528 q 42 1446 16 1528 q 60 1270 60 1388 q 60 1250 60 1261 q 60 1225 60 1239 q 60 1198 60 1209 q 60 1181 60 1187 l 60 987 l 60 921 q 172 952 100 952 q 307 892 271 952 q 300 875 315 878 q 190 846 255 867 q 66 792 107 819 q 115 796 92 796 q 257 747 204 796 q 313 597 313 694 l 253 597 q 212 722 253 671 q 120 771 173 770 q 60 769 84 771 l 60 734 l 60 673 q 75 632 60 652 q 105 613 88 613 l 132 613 l 132 591 l 68 591 q 18 616 37 591 q 0 673 0 640 l 0 734 l 0 770 l 0 987 l 0 1181 q 0 1206 0 1191 q 0 1242 0 1221 q 0 1278 0 1263 q 0 1304 0 1294 q -52 1505 0 1505 l -73 1505 l -73 1528 m 60 862 l 60 814 q 144 853 90 833 q 277 894 204 876 q 214 910 263 910 q 127 897 160 910 q 66 867 85 881 q 62 864 64 865 q 60 862 61 863 z "},"k":{"ha":331,"x_min":-73,"x_max":315,"o":"m -73 1528 l -52 1528 q 42 1446 16 1528 q 60 1270 60 1388 q 60 1250 60 1261 q 60 1225 60 1239 q 60 1198 60 1209 q 60 1181 60 1187 l 60 987 l 60 921 q 172 952 100 952 q 307 892 271 952 q 300 875 315 878 q 190 846 255 867 q 66 792 107 819 q 115 796 92 796 q 257 747 204 796 q 313 597 313 694 l 253 597 q 212 722 253 671 q 120 771 173 770 q 60 769 84 771 l 60 734 l 60 673 q 75 632 60 652 q 105 613 88 613 l 132 613 l 132 591 l 68 591 q 18 616 37 591 q 0 673 0 640 l 0 734 l 0 770 l 0 987 l 0 1181 q 0 1206 0 1191 q 0 1242 0 1221 q 0 1278 0 1263 q 0 1304 0 1294 q -52 1505 0 1505 l -73 1505 l -73 1528 m 60 862 l 60 814 q 144 853 90 833 q 277 894 204 876 q 214 910 263 910 q 127 897 160 910 q 66 867 85 881 q 62 864 64 865 q 60 862 61 863 z "},"L":{"ha":265,"x_min":-73,"x_max":253,"o":"m -73 1528 l -52 1528 q 42 1446 16 1528 q 60 1270 60 1388 q 60 1250 60 1261 q 60 1225 60 1239 q 60 1198 60 1209 q 60 1181 60 1187 l 60 673 q 75 632 60 652 q 105 613 88 613 l 132 613 l 253 613 l 253 591 l 132 591 l 68 591 q 18 616 37 591 q 0 673 0 640 l 0 1181 q 0 1206 0 1191 q 0 1242 0 1221 q 0 1278 0 1263 q 0 1304 0 1294 q -52 1505 0 1505 l -73 1505 l -73 1528 z "},"l":{"ha":265,"x_min":-73,"x_max":253,"o":"m -73 1528 l -52 1528 q 42 1446 16 1528 q 60 1270 60 1388 q 60 1250 60 1261 q 60 1225 60 1239 q 60 1198 60 1209 q 60 1181 60 1187 l 60 673 q 75 632 60 652 q 105 613 88 613 l 132 613 l 253 613 l 253 591 l 132 591 l 68 591 q 18 616 37 591 q 0 673 0 640 l 0 1181 q 0 1206 0 1191 q 0 1242 0 1221 q 0 1278 0 1263 q 0 1304 0 1294 q -52 1505 0 1505 l -73 1505 l -73 1528 z "},"P":{"ha":376,"x_min":-84,"x_max":358,"o":"m -84 23 l -52 23 q -15 39 -31 23 q 0 76 0 54 l 0 862 q 23 916 0 894 q 83 937 45 937 l 106 937 q 290 753 290 937 q 274 661 290 700 q 225 603 256 616 l 251 603 q 314 648 290 603 q 336 754 336 692 q 322 846 336 798 q 266 913 302 913 l 256 913 l 256 936 l 266 936 q 342 863 318 936 q 358 754 358 816 q 332 634 358 682 q 251 581 302 581 l 94 581 l 94 603 l 164 603 q 224 659 209 603 q 230 753 230 684 q 203 873 230 836 q 110 914 174 913 q 60 862 60 910 l 60 159 q -52 0 60 0 l -84 0 l -84 23 z "},"p":{"ha":376,"x_min":-84,"x_max":358,"o":"m -84 23 l -52 23 q -15 39 -31 23 q 0 76 0 54 l 0 862 q 23 916 0 894 q 83 937 45 937 l 106 937 q 290 753 290 937 q 274 661 290 700 q 225 603 256 616 l 251 603 q 314 648 290 603 q 336 754 336 692 q 322 846 336 798 q 266 913 302 913 l 256 913 l 256 936 l 266 936 q 342 863 318 936 q 358 754 358 816 q 332 634 358 682 q 251 581 302 581 l 94 581 l 94 603 l 164 603 q 224 659 209 603 q 230 753 230 684 q 203 873 230 836 q 110 914 174 913 q 60 862 60 910 l 60 159 q -52 0 60 0 l -84 0 l -84 23 z "},"D":{"ha":368,"x_min":0,"x_max":443,"o":"m 443 1505 l 412 1505 q 374 1489 389 1505 q 358 1451 358 1474 l 358 666 q 335 612 358 633 q 275 590 311 590 l 253 590 q 68 774 68 590 q 84 867 68 824 q 133 924 102 911 l 107 924 q 45 879 68 924 q 22 774 22 836 q 36 682 22 730 q 92 614 55 614 l 103 614 l 103 592 l 92 592 q 16 665 40 592 q 0 774 0 715 q 26 894 0 846 q 107 947 55 947 l 264 947 l 264 924 l 194 924 q 135 869 148 924 q 128 774 128 843 q 155 654 128 693 q 249 613 184 615 q 298 666 298 618 l 298 1369 q 412 1528 298 1528 l 443 1528 l 443 1505 z "},"d":{"ha":368,"x_min":0,"x_max":443,"o":"m 443 1505 l 412 1505 q 374 1489 389 1505 q 358 1451 358 1474 l 358 666 q 335 612 358 633 q 275 590 311 590 l 253 590 q 68 774 68 590 q 84 867 68 824 q 133 924 102 911 l 107 924 q 45 879 68 924 q 22 774 22 836 q 36 682 22 730 q 92 614 55 614 l 103 614 l 103 592 l 92 592 q 16 665 40 592 q 0 774 0 715 q 26 894 0 846 q 107 947 55 947 l 264 947 l 264 924 l 194 924 q 135 869 148 924 q 128 774 128 843 q 155 654 128 693 q 249 613 184 615 q 298 666 298 618 l 298 1369 q 412 1528 298 1528 l 443 1528 l 443 1505 z "},"H":{"ha":288,"x_min":-71,"x_max":274,"o":"m 274 591 l 214 591 l 214 863 q 153 923 214 923 l 110 923 l 110 614 q 107 593 110 596 q 94 591 105 591 l 23 591 q 4 594 6 591 q 0 614 0 597 l 0 863 l 0 865 l 0 944 l 1 944 l 1 1444 q -14 1486 1 1468 q -44 1506 -28 1506 l -71 1506 l -71 1528 l -7 1528 q 42 1502 21 1528 q 60 1444 60 1478 l 60 937 q 60 911 60 926 q 60 876 60 896 l 60 865 l 60 863 l 60 863 l 60 836 l 60 629 q 68 613 60 613 l 79 613 q 87 629 87 613 l 87 899 q 65 945 87 928 l 198 945 q 254 923 234 945 q 274 863 274 901 l 274 591 z "},"h":{"ha":288,"x_min":-71,"x_max":274,"o":"m 274 591 l 214 591 l 214 863 q 153 923 214 923 l 110 923 l 110 614 q 107 593 110 596 q 94 591 105 591 l 23 591 q 4 594 6 591 q 0 614 0 597 l 0 863 l 0 865 l 0 944 l 1 944 l 1 1444 q -14 1486 1 1468 q -44 1506 -28 1506 l -71 1506 l -71 1528 l -7 1528 q 42 1502 21 1528 q 60 1444 60 1478 l 60 937 q 60 911 60 926 q 60 876 60 896 l 60 865 l 60 863 l 60 863 l 60 836 l 60 629 q 68 613 60 613 l 79 613 q 87 629 87 613 l 87 899 q 65 945 87 928 l 198 945 q 254 923 234 945 q 274 863 274 901 l 274 591 z "}}}
